name analog
datacolumns 19
datarows 42
range 0.0 0.0205
endheader
time	ground_force_vx	ground_force_vy	ground_force_vz	ground_force_px	ground_force_py	ground_force_pz	l_ground_force_vx	l_ground_force_vy	l_ground_force_vz	l_ground_force_px	l_ground_force_py	l_ground_force_pz	ground_torque_x	ground_torque_y	ground_torque_z	l_ground_torque_x	l_ground_torque_y	l_ground_torque_z
0.0	-0.0	-0.0	-0.0	-10.572455406188965	49.09566116333008	-453.1900329589844	8.26504135131836	-43.777809143066406	-326.805908203125	-0.0	-0.0	-0.0	-0.0	-0.0	-0.0	78446.0625	21690.533203125	-2437.692626953125
0.0005	-0.0	-0.0	-0.0	-10.816160202026367	48.96952438354492	-451.7425231933594	8.042659759521484	-43.84424591064453	-326.660888671875	-0.0	-0.0	-0.0	-0.0	-0.0	-0.0	78460.671875	21479.54296875	-2529.143310546875
0.001	-0.0	-0.0	-0.0	-10.428522109985352	49.05238723754883	-450.4145812988281	8.161392211914062	-43.89588165283203	-327.0101623535156	-0.0	-0.0	-0.0	-0.0	-0.0	-0.0	78821.171875	21675.01171875	-2432.754150390625
0.0015	-0.0	-0.0	-0.0	-11.077523231506348	48.91718292236328	-451.01080322265625	8.641725540161133	-44.07252502441406	-328.2621765136719	-0.0	-0.0	-0.0	-0.0	-0.0	-0.0	79327.671875	21551.46875	-2412.902099609375
0.002	-0.0	-0.0	-0.0	-11.003877639770508	48.5702018737793	-452.277587890625	8.4427490234375	-43.84413909912109	-329.8284606933594	-0.0	-0.0	-0.0	-0.0	-0.0	-0.0	79288.875	21564.91015625	-2331.213623046875
0.0025	-0.0	-0.0	-0.0	-10.453192710876465	48.68644332885742	-453.0682373046875	8.620240211486816	-44.07252502441406	-329.0453186035156	-0.0	-0.0	-0.0	-0.0	-0.0	-0.0	79305.5703125	21526.314453125	-2360.7978515625
0.003	-0.0	-0.0	-0.0	-10.652839660644531	48.62844467163086	-452.50726318359375	8.448834419250488	-44.051307678222656	-328.8871765136719	-0.0	-0.0	-0.0	-0.0	-0.0	-0.0	79809.5078125	21711.439453125	-2326.10107421875
0.0035	-0.0	-0.0	-0.0	-10.36412525177002	48.4555549621582	-451.9459533691406	8.60494613647461	-44.425811767578125	-330.70733642578125	-0.0	-0.0	-0.0	-0.0	-0.0	-0.0	79706.515625	21594.138671875	-2345.3896484375
0.004	-0.0	-0.0	-0.0	-10.028292655944824	48.235313415527344	-451.967041015625	8.60494613647461	-44.435691833496094	-329.82623291015625	-0.0	-0.0	-0.0	-0.0	-0.0	-0.0	79590.1171875	21515.42578125	-2313.776123046875
0.0045000000000000005	-0.0	-0.0	-0.0	-10.149164199829102	48.47110748291016	-451.1130065917969	8.307660102844238	-44.28557205200195	-331.55010986328125	-0.0	-0.0	-0.0	-0.0	-0.0	-0.0	79749.8125	21577.9609375	-2448.208740234375
0.005	-0.0	-0.0	-0.0	-10.405789375305176	48.393009185791016	-451.7361755371094	8.678008079528809	-43.99978256225586	-331.4886779785156	-0.0	-0.0	-0.0	-0.0	-0.0	-0.0	79765.1484375	21858.51953125	-2337.997314453125
0.0055	-0.0	-0.0	-0.0	-10.201984405517578	48.1829719543457	-451.3456726074219	8.62571907043457	-44.088172912597656	-331.6321716308594	-0.0	-0.0	-0.0	-0.0	-0.0	-0.0	79676.90625	21725.58203125	-2336.3193359375
0.006	-0.0	-0.0	-0.0	-9.975515365600586	48.24004364013672	-452.2327270507813	8.42752456665039	-43.9527587890625	-331.2827453613281	-0.0	-0.0	-0.0	-0.0	-0.0	-0.0	79455.703125	21766.259765625	-2437.62158203125
0.006500000000000001	-0.0	-0.0	-0.0	-9.987308502197266	47.76204299926758	-451.49169921875	8.39579963684082	-44.14973068237305	-330.9333190917969	-0.0	-0.0	-0.0	-0.0	-0.0	-0.0	79625.546875	21805.056640625	-2472.66259765625
0.007	-0.0	-0.0	-0.0	-10.25920867919922	48.13041687011719	-451.6529541015625	8.370683670043945	-43.89588165283203	-330.29742431640625	-0.0	-0.0	-0.0	-0.0	-0.0	-0.0	79506.125	21745.3125	-2514.471923828125
0.0075	-0.0	-0.0	-0.0	-10.33214282989502	48.02893829345703	-450.6421203613281	8.475534439086914	-43.988529205322266	-330.4405212402344	-0.0	-0.0	-0.0	-0.0	-0.0	-0.0	79526.5	21600.447265625	-2507.627197265625
0.008	-0.0	-0.0	-0.0	-10.506758689880373	48.13041687011719	-451.5729370117188	8.375131607055664	-44.4098014831543	-330.63018798828125	-0.0	-0.0	-0.0	-0.0	-0.0	-0.0	79402.75	21769.41015625	-2555.0380859375
0.0085	-0.0	-0.0	-0.0	-10.067915916442873	47.83021545410156	-451.2989807128906	8.19368839263916	-44.37361145019531	-329.7262268066406	-0.0	-0.0	-0.0	-0.0	-0.0	-0.0	79610.1796875	21629.5546875	-2450.02685546875
0.009000000000000001	-0.0	-0.0	-0.0	-10.388157844543455	47.20278549194336	-449.95123291015625	8.270133972167969	-44.124755859375	-331.0745849609375	-0.0	-0.0	-0.0	-0.0	-0.0	-0.0	79534.25	21647.279296875	-2489.1318359375
0.0095	-0.0	-0.0	-0.0	-10.156631469726562	47.183082580566406	-449.1137390136719	8.213891983032227	-44.67094039916992	-330.51837158203125	-0.0	-0.0	-0.0	-0.0	-0.0	-0.0	79390.1640625	21734.197265625	-2444.61767578125
0.01	-0.0	-0.0	-0.0	-10.401342391967772	47.23911285400391	-449.59808349609375	8.19411563873291	-44.37350463867188	-330.31103515625	-0.0	-0.0	-0.0	-0.0	-0.0	-0.0	79613.3125	21769.86328125	-2563.176025390625
0.0105	-0.0	-0.0	-0.0	-10.00828456878662	47.375484466552734	-449.4320983886719	8.217239379882812	-44.65479278564453	-331.4095458984375	-0.0	-0.0	-0.0	-0.0	-0.0	-0.0	79839.8515625	21504.2578125	-2591.76416015625
0.011	-0.0	-0.0	-0.0	-10.36253261566162	47.07761764526367	-447.7657775878906	8.053077697753906	-44.53364944458008	-332.043212890625	-0.0	-0.0	-0.0	-0.0	-0.0	-0.0	79926.46875	21691.4765625	-2639.12841796875
0.0115	-0.0	-0.0	-0.0	-10.435148239135742	47.00291442871094	-447.8223571777344	8.09217643737793	-44.31807708740234	-332.31561279296875	-0.0	-0.0	-0.0	-0.0	-0.0	-0.0	79821.8203125	21786.47265625	-2603.876220703125
0.012	-0.0	-0.0	-0.0	-10.290754318237305	46.99092864990234	-447.47900390625	8.391491889953613	-44.748680114746094	-332.32684326171875	-0.0	-0.0	-0.0	-0.0	-0.0	-0.0	80072.5234375	21617.689453125	-2693.693115234375
0.0125	-0.0	-0.0	-0.0	-10.471611976623535	47.11603546142578	-448.2610473632813	8.40824031829834	-44.72661590576172	-333.51568603515625	-0.0	-0.0	-0.0	-0.0	-0.0	-0.0	80253.7578125	21677.130859375	-2538.861572265625
0.013000000000000001	-0.0	-0.0	-0.0	-10.435684204101562	47.02481460571289	-446.8478698730469	8.338813781738281	-44.44490051269531	-334.0626220703125	-0.0	-0.0	-0.0	-0.0	-0.0	-0.0	80293.8984375	21767.806640625	-2603.7685546875
0.0135	-0.0	-0.0	-0.0	-10.099687576293944	47.14998626708984	-445.29205322265625	8.39159870147705	-44.58566665649414	-333.6475524902344	-0.0	-0.0	-0.0	-0.0	-0.0	-0.0	80615.4765625	21512.87890625	-2526.06201171875
0.014	-0.0	-0.0	-0.0	-10.580048561096191	47.25471496582031	-445.8619079589844	8.338813781738281	-44.58357238769531	-334.6951599121094	-0.0	-0.0	-0.0	-0.0	-0.0	-0.0	80723.0078125	21824.71484375	-2484.490234375
0.0145	-0.0	-0.0	-0.0	-10.221834182739258	47.256378173828125	-443.6624145507813	8.657801628112793	-44.56675720214844	-334.4203796386719	-0.0	-0.0	-0.0	-0.0	-0.0	-0.0	80747.125	21890.595703125	-2490.63671875
0.015	-0.0	-0.0	-0.0	-10.25920867919922	46.66965866088867	-444.9380493164063	8.784041404724121	-44.335819244384766	-335.0445861816406	-0.0	-0.0	-0.0	-0.0	-0.0	-0.0	80893.5390625	21478.140625	-2562.39013671875
0.0155	-0.0	-0.0	-0.0	-10.490944862365724	47.311893463134766	-442.6724243164063	8.905360221862793	-44.53120040893555	-335.88385009765625	-0.0	-0.0	-0.0	-0.0	-0.0	-0.0	81247.8125	21600.3984375	-2383.83251953125
0.016	-0.0	-0.0	-0.0	-10.418391227722168	46.70433044433594	-442.3959655761719	8.782367706298828	-44.5312728881836	-336.01934814453125	-0.0	-0.0	-0.0	-0.0	-0.0	-0.0	81103.140625	21535.552734375	-2366.676025390625
0.0165	-0.0	-0.0	-0.0	-10.5971040725708	46.77660369873047	-443.3103637695313	9.154497146606444	-44.53247833251953	-336.1649780273437	-0.0	-0.0	-0.0	-0.0	-0.0	-0.0	81170.2109375	21533.591796875	-2431.090087890625
0.017	-0.0	-0.0	-0.0	-10.419476509094238	46.90073013305664	-444.4420471191406	8.871078491210938	-44.70805358886719	-336.3051452636719	-0.0	-0.0	-0.0	-0.0	-0.0	-0.0	81509.9921875	22006.09375	-2461.034423828125
0.0175	-0.0	-0.0	-0.0	-10.437629699707031	47.00778198242188	-442.25140380859375	8.941574096679688	-44.390323638916016	-337.6919860839844	-0.0	-0.0	-0.0	-0.0	-0.0	-0.0	81571.7109375	21638.55078125	-2389.69384765625
0.018000000000000002	-0.0	-0.0	-0.0	-10.847967147827148	46.56175231933594	-442.6764831542969	9.066606521606444	-44.81454849243164	-338.5345458984375	-0.0	-0.0	-0.0	-0.0	-0.0	-0.0	81424.296875	21761.625	-2354.448486328125
0.0185	-0.0	-0.0	-0.0	-10.687432289123535	46.52606964111328	-441.9693603515625	9.226353645324709	-44.56747055053711	-338.2604675292969	-0.0	-0.0	-0.0	-0.0	-0.0	-0.0	82018.0390625	21677.76953125	-2336.322998046875
0.019	-0.0	-0.0	-0.0	-10.508723258972168	46.59749221801758	-442.60540771484375	8.906614303588867	-44.95574188232422	-339.44482421875	-0.0	-0.0	-0.0	-0.0	-0.0	-0.0	82079.8984375	21939.322265625	-2354.528076171875
0.0195	-0.0	-0.0	-0.0	-10.634044647216797	46.29463577270508	-440.9822998046875	9.048500061035156	-44.51420974731445	-339.8642578125	-0.0	-0.0	-0.0	-0.0	-0.0	-0.0	82333.09375	21610.072265625	-2354.27880859375
0.02	-0.0	-0.0	-0.0	-10.420124053955078	46.75848388671875	-440.7015075683594	9.101747512817385	-44.70848083496094	-341.7494201660156	-0.0	-0.0	-0.0	-0.0	-0.0	-0.0	82503.515625	21695.01953125	-2455.139404296875
0.0205	-0.0	-0.0	-0.0	-10.402091979980469	46.50795364379883	-438.1527404785156	9.048500061035156	-44.81436920166016	-341.67999267578125	-0.0	-0.0	-0.0	-0.0	-0.0	-0.0	82707.4765625	21889.69140625	-2390.009521484375
